# xmcd
#
# Track frame offsets:
#	150
#	33979
#	47319
#	115620
#	135245
#	194451
#	213839
#	249523
#
# Disc length: 3899 seconds
#
# Revision: 1
# Processed by: cddbd v1.5.2PL0 Copyright (c) Steve Scherf et al.
# Submitted via: audiograbber 1.83.01
#
DISCID=5e0f3908
DTITLE=Grateful Dead - 78-10-21 Winterland Arena, San Francisco CA
DYEAR=1900
DGENRE=
TTITLE0=Song 1
TTITLE1=Song 2
TTITLE2=Ollin Arageed
TTITLE3=Promised Land
TTITLE4=Sugaree
TTITLE5=Passenger
TTITLE6=Ramble On Rose
TTITLE7=Looks Like Rain
EXTD=
EXTT0=
EXTT1=
EXTT2=
EXTT3=
EXTT4=
EXTT5=
EXTT6=
EXTT7=
PLAYORDER=
